# Blender v2.79 (sub 0) OBJ File: ''
# www.blender.org
mtllib icospherecut.mtl
o Icosphere
v 0.000000 -1.000000 -2.000000
v -0.525725 -0.447220 -1.276393
v 0.525725 -0.447220 -1.276393
v -0.850649 0.447220 -1.723612
v 0.850649 0.447220 -1.723612
v 0.000000 1.000000 -2.000000
v -0.499995 -0.850654 -2.162456
v -0.309011 -0.850654 -1.574677
v -0.809012 -0.525738 -1.737131
v 0.309011 -0.850654 -1.574677
v 0.499995 -0.850654 -2.162456
v 0.809012 -0.525738 -1.737131
v -1.000000 0.000000 -2.000000
v -0.809017 0.000000 -1.412215
v 0.809017 0.000000 -1.412214
v 1.000000 0.000000 -2.000000
v -0.499997 0.525736 -1.311811
v 0.499997 0.525736 -1.311811
v -0.499995 0.850654 -1.837544
v -0.000000 0.850652 -1.474270
v 0.499995 0.850654 -1.837544
vn -0.3151 -0.9435 0.1024
vn 0.3151 -0.9435 0.1024
vn 0.7779 -0.3304 0.5346
vn -0.6284 0.6617 0.4089
vn 0.1947 0.9435 0.2680
vn 0.3568 0.7947 0.4911
vn 0.6284 0.6617 0.4089
vn -0.1947 0.9435 0.2680
vn -0.3568 0.7947 0.4911
vn 0.7488 0.3304 0.5746
vn -0.7488 0.3304 0.5746
vn 0.9435 0.1256 0.3066
vn 0.9342 -0.1876 0.3035
vn -0.9435 0.1256 0.3066
vn -0.9342 -0.1876 0.3035
vn -0.7779 -0.3304 0.5346
vn 0.5831 -0.6617 0.4713
vn 0.5773 -0.7947 0.1876
vn 0.0000 -0.9435 0.3313
vn -0.5773 -0.7947 0.1876
vn -0.5831 -0.6617 0.4713
usemtl None
s off
f 1//1 8//1 7//1
f 1//2 11//2 10//2
f 3//3 12//3 15//3
f 4//4 17//4 19//4
f 20//5 21//5 6//5
f 20//6 18//6 21//6
f 18//7 5//7 21//7
f 19//8 20//8 6//8
f 19//9 17//9 20//9
f 15//10 5//10 18//10
f 14//11 17//11 4//11
f 15//12 16//12 5//12
f 15//13 12//13 16//13
f 13//14 14//14 4//14
f 13//15 9//15 14//15
f 9//16 2//16 14//16
f 10//17 12//17 3//17
f 10//18 11//18 12//18
f 8//19 1//19 10//19
f 7//20 8//20 9//20
f 8//21 2//21 9//21
