# Blender v2.79 (sub 0) OBJ File: ''
# www.blender.org
mtllib whale2.mtl
o Whale_01_Cube.030
v 2.195040 1.560811 -5.195773
v 2.451333 1.243022 -4.704567
v 3.557211 1.163598 -5.631999
v 3.431518 1.391381 -5.855190
v -1.622130 0.667183 -2.711579
v -1.636196 1.158100 -2.621969
v -2.521414 0.692006 -2.466465
v -2.531107 0.399006 -2.560138
v 2.443806 1.015513 -4.777302
v 0.778537 1.736179 -3.598051
v 0.860089 1.109685 -3.571094
v 0.073468 1.022522 -3.217057
v 0.017497 1.631385 -3.191516
v -0.753970 1.533778 -2.806380
v -0.713153 0.935359 -2.863019
v 3.553670 1.056588 -5.666210
v 3.550130 0.949579 -5.700421
v 4.309864 1.360942 -6.068261
v 4.271224 1.453877 -6.018222
v 2.436279 0.788005 -4.850038
v 4.152500 1.638246 -6.123610
v 4.232584 1.546813 -5.968183
v 5.464694 1.581149 -5.518829
v 5.225453 1.886303 -6.563140
v 5.214579 1.827006 -6.577756
v 5.453821 1.521852 -5.533444
v 5.442947 1.462554 -5.548059
v 0.166041 2.158298 -4.855005
v -0.646161 2.088764 -4.553465
v -0.224642 2.136499 -4.007554
v -0.007942 2.147632 -3.925221
v 0.478968 2.149143 -4.161978
v -2.048485 1.456130 -3.163119
v -3.005687 0.847028 -2.901240
v -3.015380 0.554028 -2.994914
v 5.203705 1.767708 -6.592371
v -0.782783 0.566907 -3.108440
v -0.320423 0.542070 -3.060854
v -0.249679 0.655303 -2.960928
v 0.790459 0.741234 -3.816514
v -1.447937 2.012045 -4.230526
v -1.094274 1.974816 -3.453903
v -0.343412 2.110459 -3.774235
v 0.018634 0.736613 -3.243021
v 0.003838 0.654070 -3.462477
v -0.052110 0.623380 -3.342947
v 0.257827 0.353406 -3.228904
v 0.326810 0.437245 -3.180723
v 0.824442 -0.022584 -2.980743
v 0.764086 -0.094868 -3.019555
v -0.169174 0.254512 -2.875389
v -0.100191 0.338351 -2.827208
v 0.440382 -0.111532 -2.662779
v 0.380026 -0.183816 -2.701591
v 0.941488 -0.253043 -2.936627
v 1.000636 -0.228198 -2.878867
v 0.860185 -0.297128 -2.694449
v 0.801037 -0.321972 -2.752210
v 3.296693 1.343141 -6.166628
v 1.929616 1.602578 -5.775225
v -2.289236 1.126937 -4.080602
v -3.052824 0.758562 -3.630796
v -3.043130 1.051561 -3.537123
v -2.244038 1.577011 -3.869371
v 1.922089 1.375069 -5.847961
v 0.047595 1.669639 -5.238482
v -0.739026 1.582476 -4.884445
v -1.525648 1.495312 -4.530407
v 3.293153 1.236131 -6.200840
v 4.108710 1.565879 -6.351732
v 4.147350 1.472943 -6.401771
v 3.289613 1.129122 -6.235051
v 1.914562 1.147561 -5.920696
v 4.552815 2.209597 -7.390173
v 4.070070 1.658815 -6.301693
v 4.541942 2.150300 -7.404788
v 4.531068 2.091002 -7.419403
v -0.196461 2.179059 -3.934464
v -0.283305 2.161628 -3.786340
v -0.221401 2.169915 -3.813722
v -0.179851 2.179181 -3.897528
v -1.222399 1.325681 -4.957129
v -1.223583 1.164509 -4.914306
v -1.482958 1.049453 -4.545327
v 0.090284 1.223779 -5.253402
v -0.091697 2.044877 -3.734727
v -0.825136 1.318122 -4.974594
v -0.696337 1.136616 -4.899364
v -0.826321 1.156949 -4.931770
v -0.773148 1.063932 -5.344654
v -0.704711 0.917396 -6.033797
v -0.676076 1.011541 -6.060082
v -0.742881 1.174453 -5.375926
v -1.298833 1.164429 -5.287041
v -1.329099 1.053907 -5.255768
v -1.176118 1.002525 -5.980135
v -1.204753 0.908380 -5.953850
v -0.687901 0.869897 -6.280433
v -0.928771 0.870174 -6.302094
v -0.926054 0.926126 -6.350693
v -0.685184 0.925848 -6.329032
v -0.065093 2.185807 -3.884552
v -0.115867 2.123515 -3.769070
v -0.101412 2.183211 -3.867726
v -0.131729 2.146016 -3.798772
v -0.162646 1.955368 -3.914403
v -1.996541 0.507852 -3.506887
v -1.571265 0.424741 -2.961331
v -2.315807 0.319325 -2.635196
v -2.674146 0.377192 -3.220579
v 2.175421 0.967783 -5.385367
v 0.435395 0.832086 -4.583048
v -0.351226 0.744923 -4.229011
v -1.137847 0.657759 -3.874973
v 4.228607 1.416942 -6.235016
v 3.419871 1.039350 -5.967736
v -2.545935 0.388398 -2.468192
v -3.091690 0.562095 -2.955020
v -1.908528 0.586850 -2.595213
v -1.201311 0.793037 -2.753655
v -1.166374 0.505876 -3.061788
v -1.534260 0.599181 -3.701479
v -1.476774 1.155769 -3.542574
v -2.878386 0.707042 -3.789713
v -2.134759 0.813090 -4.117726
v -3.131372 0.791869 -3.669619
v -2.578366 1.048488 -3.969844
v -1.780100 0.928843 -4.321267
v -1.955548 1.312842 -4.301488
v -1.178661 0.904013 -2.750149
v -1.200807 0.883123 -2.745272
v -1.170889 0.881550 -2.753460
v -1.180644 0.860009 -2.751974
v -1.202210 0.852008 -2.746562
v -1.222954 0.862233 -2.740394
v -1.230726 0.884696 -2.737083
v -1.220971 0.906237 -2.738569
v -1.199405 0.914238 -2.743982
v -1.191930 0.890985 -2.813556
v -1.199702 0.913447 -2.810245
v -1.201685 0.869444 -2.812070
v -1.243995 0.871668 -2.800490
v -1.223251 0.861443 -2.806658
v -1.242012 0.915672 -2.798665
v -1.251766 0.894130 -2.797179
v -1.220446 0.923673 -2.804077
v -1.916495 1.412512 -4.264321
v -1.914512 1.394039 -4.279510
v -1.939436 1.392170 -4.261075
v -1.927130 1.374471 -4.283900
v -1.946956 1.365271 -4.274919
v -1.962378 1.371829 -4.257828
v -1.964361 1.390302 -4.242638
v -1.951743 1.409870 -4.238249
v -1.931917 1.419069 -4.247230
v -1.884473 1.385377 -4.215521
v -1.882489 1.366903 -4.230711
v -1.895107 1.347336 -4.235100
v -1.914934 1.338136 -4.226119
v -1.930356 1.344693 -4.209028
v -1.932338 1.363166 -4.193838
v -1.919721 1.382734 -4.189448
v -1.899894 1.391934 -4.198430
vn 0.3709 0.8422 0.3914
vn 0.3857 0.7776 0.4965
vn 0.3904 0.7452 0.5406
vn 0.2532 -0.1915 0.9483
vn 0.2464 -0.2684 0.9312
vn 0.2429 -0.3027 0.9216
vn 0.5789 -0.2091 0.7881
vn 0.5735 0.0833 0.8149
vn 0.5739 -0.2665 0.7743
vn 0.4345 -0.0201 0.9005
vn 0.4275 -0.0338 0.9034
vn 0.4150 -0.0576 0.9080
vn 0.5401 -0.2696 0.7973
vn 0.5269 -0.2271 0.8190
vn 0.5319 -0.2218 0.8172
vn 0.6095 -0.2596 0.7490
vn -0.0511 0.9017 0.4293
vn -0.1211 0.9356 0.3318
vn 0.0070 0.8635 0.5044
vn -0.0401 0.7145 0.6985
vn -0.0745 0.8085 0.5838
vn -0.0868 0.8385 0.5380
vn 0.9607 -0.1137 -0.2533
vn -0.3109 -0.5362 0.7847
vn -0.3654 -0.1774 0.9138
vn -0.3667 -0.1587 0.9167
vn -0.0686 0.9976 -0.0060
vn -0.0300 0.9995 0.0058
vn -0.0505 0.9987 -0.0032
vn 0.4571 0.8322 0.3139
vn 0.4752 0.8149 0.3318
vn 0.4504 0.8383 0.3073
vn -0.2880 0.7364 0.6122
vn -0.2957 0.7371 0.6077
vn -0.2788 0.7355 0.6175
vn -0.6892 -0.1999 0.6964
vn -0.2933 -0.5337 0.7932
vn -0.3329 -0.1854 0.9246
vn -0.3337 -0.1675 0.9277
vn 0.5405 -0.2687 0.7973
vn 0.5317 -0.2194 0.8180
vn -0.1378 -0.5469 0.8258
vn -0.1285 -0.5742 0.8085
vn -0.1435 -0.5297 0.8360
vn 0.5155 -0.3120 0.7981
vn 0.4904 -0.5283 0.6931
vn 0.5167 -0.2762 0.8104
vn 0.3908 -0.5603 0.7303
vn -0.1125 0.9920 0.0569
vn -0.1596 0.9866 0.0345
vn -0.1191 0.9915 0.0530
vn 0.4404 0.0594 0.8959
vn 0.4303 0.0388 0.9018
vn 0.4105 -0.0005 0.9119
vn 0.5988 0.0313 0.8003
vn 0.4687 0.1894 0.8628
vn 0.7381 -0.2001 0.6444
vn 0.8859 -0.4506 0.1098
vn 0.9533 -0.2983 0.0479
vn 0.7498 -0.6344 0.1881
vn 0.4659 0.1172 -0.8770
vn 0.4516 0.1027 -0.8863
vn 0.4674 0.1188 -0.8760
vn -0.7474 -0.0481 0.6626
vn -0.6935 0.0724 0.7168
vn -0.7624 -0.0892 0.6409
vn 0.5318 0.3028 -0.7909
vn 0.4243 0.2326 -0.8751
vn 0.5612 0.3222 -0.7624
vn 0.4704 0.5663 0.6768
vn 0.4817 0.5600 0.6740
vn 0.4314 0.5867 0.6853
vn 0.3699 0.6770 0.6362
vn -0.4162 -0.1678 0.8937
vn -0.4022 -0.1527 0.9027
vn -0.4005 -0.1509 0.9038
vn 0.4104 -0.9115 -0.0282
vn -0.0639 -0.4811 0.8743
vn -0.2585 -0.7178 0.6465
vn -0.2822 -0.7420 0.6081
vn 0.5102 0.0955 -0.8548
vn 0.6166 0.1658 -0.7696
vn 0.4755 0.0737 -0.8766
vn 0.3898 0.6885 0.6116
vn 0.3905 0.6883 0.6113
vn 0.4447 0.6736 0.5904
vn 0.1621 0.9861 -0.0371
vn 0.0802 0.9882 -0.1305
vn 0.1829 0.9831 -0.0129
vn -0.5667 0.3736 -0.7343
vn -0.5775 0.2994 -0.7595
vn -0.5625 0.3969 -0.7253
vn -0.1962 0.6138 -0.7647
vn -0.2442 0.3582 -0.9011
vn -0.2515 0.3023 -0.9195
vn -0.3732 0.5365 -0.7569
vn -0.3831 0.5249 -0.7601
vn -0.3557 0.5562 -0.7510
vn -0.2907 0.3029 -0.9076
vn -0.3047 0.3460 -0.8874
vn -0.2964 0.2997 -0.9068
vn -0.2084 0.3041 -0.9296
vn -0.0912 0.9150 0.3931
vn -0.1244 0.9522 0.2788
vn -0.1502 0.9718 0.1818
vn -0.3570 0.9329 0.0482
vn -0.2737 0.9458 0.1750
vn -0.3750 0.9268 0.0188
vn 0.7781 0.0121 -0.6281
vn -0.8979 -0.1316 -0.4200
vn -0.9394 0.2182 -0.2643
vn -0.8941 -0.1433 -0.4242
vn -0.1161 0.9919 0.0511
vn -0.1107 0.9925 0.0523
vn -0.1194 0.9916 0.0504
vn 0.2661 0.9590 -0.0973
vn 0.2715 0.9601 -0.0670
vn 0.2734 0.9603 -0.0560
vn -0.4517 0.8445 0.2877
vn -0.4501 0.8481 0.2796
vn -0.4481 0.8522 0.2700
vn -0.9979 0.0129 0.0629
vn -0.8920 -0.1211 -0.4355
vn -0.9281 0.2248 -0.2969
vn -0.8885 -0.1329 -0.4393
vn -0.2902 0.3038 -0.9075
vn -0.2988 0.3507 -0.8876
vn -0.8061 -0.1073 -0.5820
vn -0.8179 -0.0782 -0.5700
vn -0.8248 -0.0602 -0.5622
vn -0.3104 0.0236 -0.9503
vn -0.3174 0.2621 -0.9113
vn -0.3169 0.2983 -0.9003
vn -0.4096 -0.0087 -0.9122
vn 0.2186 0.8282 0.5161
vn 0.2017 0.8114 0.5486
vn 0.2116 0.8180 0.5348
vn -0.3467 0.6019 -0.7194
vn -0.3625 0.5853 -0.7253
vn -0.3167 0.6319 -0.7074
vn -0.1819 0.5693 -0.8018
vn -0.2730 0.7006 -0.6593
vn -0.3294 0.7734 -0.5416
vn 0.3859 -0.1060 -0.9164
vn 0.5111 0.0064 -0.8595
vn 0.5874 0.0832 -0.8050
vn 0.9574 -0.2458 0.1516
vn 0.9635 -0.2257 0.1441
vn 0.9641 -0.2235 0.1433
vn -0.9494 0.2488 0.1916
vn -0.9745 0.1083 0.1967
vn -0.9785 0.0597 0.1975
vn 0.9631 -0.1387 0.2306
vn 0.9890 -0.0123 0.1474
vn 0.9922 0.0252 0.1221
vn -0.0463 0.9224 -0.3836
vn -0.0385 0.9185 -0.3935
vn -0.0022 0.8986 -0.4387
vn -0.0553 0.9701 -0.2364
vn -0.9555 0.2039 -0.2131
vn -0.9493 0.2244 -0.2201
vn -0.9561 0.2017 -0.2124
vn 0.0668 -0.6561 -0.7517
vn -0.7877 0.0253 -0.6155
vn -0.8100 -0.3228 -0.4896
vn -0.7788 0.0626 -0.6241
vn 0.9951 -0.0987 0.0101
vn 0.9696 -0.2264 0.0935
vn 0.9588 -0.2594 0.1153
vn -0.0227 0.9643 -0.2639
vn -0.0233 0.9644 -0.2634
vn -0.0554 0.9698 -0.2374
vn 0.6977 0.4558 0.5526
vn 0.1108 0.8003 0.5893
vn 0.1264 0.8273 0.5473
vn 0.1249 0.8233 0.5537
vn -0.6355 0.7220 -0.2737
vn -0.6062 0.7613 -0.2301
vn -0.5981 0.7711 -0.2184
vn 0.1639 0.8237 -0.5428
vn -0.0394 0.3112 0.9495
vn -0.0424 0.3727 0.9270
vn -0.0374 0.2715 0.9617
vn 0.1856 0.8284 0.5285
vn 0.1283 0.8235 0.5526
vn 0.1311 0.8259 0.5484
vn 0.1316 0.8263 0.5476
vn -0.0603 0.9979 0.0238
vn 0.8938 0.0350 0.4470
vn -0.9226 0.2981 -0.2448
vn 0.2653 0.4682 -0.8429
vn -0.3491 -0.0971 0.9320
vn -0.3947 0.8857 0.2443
vn -0.3930 0.8884 0.2370
vn -0.3890 0.8946 0.2200
vn -0.5761 0.4507 -0.6818
vn -0.5890 0.4178 -0.6917
vn -0.5656 0.4759 -0.6735
vn -0.2105 0.7627 0.6116
vn -0.2175 0.7636 0.6080
vn -0.1942 0.7603 0.6199
vn 0.2279 -0.1034 0.9682
vn 0.2187 -0.1388 0.9659
vn 0.2105 -0.1697 0.9628
vn 0.3661 0.8567 0.3632
vn 0.2550 -0.1666 0.9525
vn 0.5706 0.1093 0.8139
vn 0.4463 0.0035 0.8949
vn 0.5350 -0.2733 0.7994
vn -0.1381 0.9417 0.3068
vn -0.0320 0.6904 0.7227
vn -0.3082 -0.5472 0.7782
vn 0.0027 0.9999 0.0120
vn -0.0914 0.9957 -0.0165
vn 0.4807 0.8094 0.3374
vn -0.3047 0.7378 0.6024
vn -0.2911 -0.5446 0.7866
vn -0.1133 -0.6167 0.7790
vn 0.4868 -0.5461 0.6818
vn -0.1534 0.9876 0.0321
vn -0.0642 0.9950 0.0769
vn 0.4584 0.0977 0.8834
vn 0.3648 0.2950 0.8831
vn 0.9820 -0.1888 0.0048
vn 0.4498 0.1009 -0.8874
vn -0.6655 0.1246 0.7359
vn 0.3810 0.2046 -0.9016
vn 0.5331 0.5297 0.6597
vn -0.4177 -0.1694 0.8927
vn -0.0393 -0.4471 0.8936
vn 0.6454 0.1860 -0.7409
vn 0.3550 0.6965 0.6236
vn 0.0435 0.9843 -0.1713
vn -0.5812 0.2652 -0.7694
vn -0.1911 0.6342 -0.7492
vn -0.4003 0.5043 -0.7652
vn -0.0827 0.9035 0.4205
vn -0.2413 0.9450 0.2209
vn -0.9378 0.2349 -0.2554
vn -0.1097 0.9926 0.0525
vn 0.2643 0.9585 -0.1067
vn -0.4535 0.8403 0.2970
vn -0.9265 0.2411 -0.2889
vn -0.2989 0.3531 -0.8866
vn -0.7852 -0.1536 -0.5999
vn -0.3089 0.0023 -0.9511
vn 0.1940 0.7990 0.5692
vn 0.2355 0.8395 0.4897
vn -0.3922 0.5527 -0.7354
vn -0.0351 0.3328 -0.9423
vn 0.1966 -0.2531 -0.9473
vn 0.9566 -0.2484 0.1525
vn -0.9324 0.3086 0.1882
vn 0.9474 -0.1857 0.2607
vn -0.0727 0.9342 -0.3493
vn -0.9485 0.2268 -0.2209
vn -0.8045 -0.3668 -0.4672
vn 0.9980 -0.0609 -0.0144
vn 0.0285 0.9521 -0.3043
vn 0.1440 0.8515 0.5043
vn 0.1167 0.8014 0.5866
vn -0.6526 0.6954 -0.3008
vn -0.0432 0.3887 0.9204
vn 0.1265 0.8220 0.5552
vn -0.3985 0.8793 0.2608
vn -0.5996 0.3886 -0.6996
vn -0.2335 0.7656 0.5995
vn 0.2348 -0.0757 0.9691
vn 0.2611 -0.0517 0.9639
vn 0.9000 0.3497 -0.2602
vn 0.8410 -0.4055 -0.3581
vn -0.4391 -0.8984 0.0127
vn -0.8410 0.4055 0.3581
vn 0.4391 0.8984 -0.0127
vn 0.2827 -0.9275 -0.2446
vn -0.9000 -0.3497 0.2602
vn -0.2827 0.9275 0.2446
vn -0.5390 0.4997 -0.6781
vn 0.8560 0.3800 -0.3504
vn 0.7054 -0.3121 -0.6364
vn -0.5116 -0.8484 -0.1361
vn -0.5115 -0.8484 -0.1361
vn -0.7054 0.3121 0.6364
vn 0.5115 0.8484 0.1361
vn 0.1350 -0.8257 -0.5477
vn -0.8560 -0.3800 0.3504
vn -0.1350 0.8257 0.5477
vn 0.4390 0.8984 -0.0127
vn 0.0827 -0.9799 -0.1816
vn 0.0880 -0.9798 -0.1797
vn 0.1175 -0.9787 -0.1686
vn -0.0539 -0.9683 -0.2439
vn -0.0404 -0.9894 -0.1395
vn -0.0599 -0.9547 -0.2914
vn 0.0470 -0.9892 -0.1390
vn 0.2014 -0.9099 -0.3628
vn 0.2237 -0.9170 -0.3302
vn 0.2298 -0.9187 -0.3211
vn 0.2659 -0.8673 -0.4208
vn -0.0776 -0.9559 -0.2832
vn -0.2938 -0.9537 0.0643
vn -0.3353 -0.9394 0.0711
vn -0.2490 -0.9668 0.0568
vn 0.3690 -0.6596 0.6549
vn 0.3442 -0.6283 0.6977
vn 0.3759 -0.6682 0.6421
vn 0.2745 -0.6308 0.7258
vn 0.2705 -0.6348 0.7237
vn 0.1951 -0.7064 0.6804
vn 0.0860 -0.9799 -0.1800
vn 0.1143 -0.9773 -0.1785
vn 0.0658 -0.9813 -0.1810
vn -0.3987 -0.6688 -0.6275
vn -0.4093 -0.6637 -0.6261
vn -0.4567 -0.6393 -0.6187
vn 0.0062 -0.9645 -0.2639
vn -0.0190 -0.9590 -0.2828
vn -0.0221 -0.9582 -0.2851
vn -0.3449 -0.7383 -0.5795
vn -0.3412 -0.7391 -0.5807
vn -0.3151 -0.7444 -0.5888
vn -0.3565 -0.6945 -0.6249
vn -0.1576 0.8748 0.4581
vn -0.1640 0.8617 0.4801
vn -0.1677 0.8539 0.4927
vn -0.1557 0.8757 0.4570
vn -0.0528 -0.8865 -0.4597
vn -0.0508 -0.8842 -0.4644
vn -0.0636 -0.8984 -0.4346
vn -0.1654 -0.9033 -0.3959
vn -0.0936 -0.9409 -0.3254
vn -0.1089 -0.8817 -0.4591
vn 0.1718 -0.8895 -0.4234
vn 0.1611 -0.8739 -0.4587
vn 0.1812 -0.9023 -0.3913
vn -0.4964 -0.8284 -0.2595
vn -0.4680 -0.8336 -0.2933
vn -0.4368 -0.8374 -0.3286
vn -0.4327 -0.0929 -0.8967
vn -0.3934 -0.1342 -0.9095
vn -0.3817 -0.1460 -0.9127
vn -0.4988 -0.0978 -0.8612
vn -0.5009 -0.1032 -0.8593
vn -0.4650 -0.0149 -0.8852
vn -0.0518 -0.8849 -0.4629
vn -0.0339 -0.8751 -0.4827
vn -0.0217 -0.8680 -0.4960
vn 0.0257 -0.9635 0.2666
vn 0.0323 -0.9659 0.2570
vn -0.0045 -0.9509 0.3094
vn -0.0407 -0.9441 -0.3272
vn -0.0392 -0.9332 -0.3573
vn -0.0408 -0.9453 -0.3235
vn 0.0188 -0.9872 0.1581
vn 0.0157 -0.9869 0.1606
vn 0.0403 -0.9893 0.1405
vn 0.0516 -0.9758 0.2126
vn -0.2440 0.9168 0.3160
vn -0.2208 0.9183 0.3285
vn -0.2573 0.9157 0.3087
vn -0.2184 0.9191 0.3280
vn -0.2185 0.9190 0.3281
vn -0.2168 0.9198 0.3271
vn -0.4175 -0.1780 -0.8911
vn -0.4265 -0.1735 -0.8877
vn -0.4512 -0.1610 -0.8778
vn -0.0017 -0.8904 -0.4552
vn 0.0059 -0.8860 -0.4637
vn 0.0151 -0.8803 -0.4742
vn 0.3222 -0.6895 0.6487
vn 0.3294 -0.6927 0.6416
vn 0.3020 -0.6801 0.6680
vn 0.1116 -0.9685 -0.2227
vn 0.1238 -0.9672 -0.2218
vn 0.0974 -0.9698 -0.2237
vn -0.2164 0.9199 0.3269
vn -0.1533 0.8764 0.4565
vn 0.0547 -0.9799 -0.1919
vn -0.0354 -0.9942 -0.1014
vn -0.3631 -0.9287 0.0757
vn 0.3338 -0.6150 0.7144
vn 0.3338 -0.5655 0.7542
vn 0.1336 -0.9750 -0.1774
vn -0.3641 -0.6847 -0.6313
vn 0.0634 -0.9734 -0.2202
vn -0.3853 -0.7289 -0.5659
vn -0.1554 0.8792 0.4505
vn -0.0394 -0.8706 -0.4904
vn -0.1908 -0.8872 -0.4202
vn 0.1581 -0.8693 -0.4684
vn -0.5151 -0.8239 -0.2363
vn -0.4483 -0.0760 -0.8907
vn -0.5358 -0.2026 -0.8197
vn -0.0646 -0.8914 -0.4485
vn 0.0537 -0.9726 0.2260
vn -0.0359 -0.9050 -0.4240
vn -0.0180 -0.9820 0.1879
vn -0.2128 0.9187 0.3327
vn -0.3986 -0.1872 -0.8978
vn -0.0105 -0.8954 -0.4451
vn 0.3442 -0.6991 0.6267
vn 0.1387 -0.9654 -0.2206
usemtl 039BE5
s 1
f 1//1 3//2 4//3
f 5//4 7//5 8//6
f 2//7 11//8 9//9
f 12//10 14//11 15//12
f 16//13 18//14 19//15
f 20//16 16//16 9//16
f 22//17 24//18 21//19
f 4//20 22//21 21//22
f 25//23 23//23 26//23
f 19//24 27//25 26//26
f 30//27 31//28 28//29
f 1//30 10//31 2//32
f 33//33 7//34 6//35
f 7//36 35//36 8//36
f 22//37 26//38 23//39
f 36//23 26//23 27//23
f 9//16 3//16 2//16
f 3//40 19//15 22//41
f 37//42 39//43 15//44
f 9//45 40//46 20//47
f 40//48 11//48 12//48
f 42//49 43//50 29//51
f 11//52 13//53 12//54
f 12//55 39//56 44//57
f 45//58 44//59 46//60
f 48//61 50//62 47//63
f 38//64 52//65 39//66
f 44//67 47//68 46//69
f 44//70 52//71 48//72
f 48//73 53//73 49//73
f 52//74 54//75 53//76
f 56//77 58//77 55//77
f 53//78 58//79 57//80
f 49//81 55//82 50//83
f 49//84 57//85 56//86
f 1//87 59//88 60//89
f 61//90 63//91 64//92
f 66//93 60//94 65//95
f 67//96 41//97 29//98
f 69//99 71//100 72//101
f 69//102 73//102 65//102
f 24//103 75//104 21//105
f 4//106 75//107 59//108
f 25//109 74//109 24//109
f 70//110 77//111 71//112
f 78//113 80//114 81//115
f 28//116 1//117 60//118
f 63//119 33//120 64//121
f 35//122 63//122 62//122
f 75//123 76//124 70//125
f 36//109 76//109 25//109
f 59//102 65//102 60//102
f 59//126 70//127 69//99
f 82//128 84//129 68//130
f 85//131 65//132 73//133
f 85//134 67//134 66//134
f 31//135 86//136 10//137
f 66//138 29//139 28//140
f 67//141 82//142 68//143
f 88//144 87//145 67//146
f 91//147 93//148 90//149
f 94//150 83//151 82//152
f 90//153 87//154 89//155
f 87//156 94//157 82//158
f 93//159 96//159 94//159
f 94//160 97//161 95//162
f 99//163 101//163 98//163
f 96//164 99//165 97//166
f 98//167 92//168 91//169
f 92//170 100//171 96//172
f 31//173 103//173 86//173
f 43//174 42//175 13//176
f 43//177 78//178 30//179
f 31//180 78//180 102//180
f 43//181 103//182 79//183
f 102//184 105//184 103//184
f 103//185 80//186 79//187
f 102//188 81//188 104//188
f 81//189 80//189 106//189
f 105//190 104//190 106//190
f 80//191 105//191 106//191
f 104//192 81//192 106//192
f 64//193 42//194 41//195
f 68//196 64//197 41//198
f 42//199 6//200 14//201
f 15//202 6//203 5//204
f 1//1 2//205 3//2
f 5//4 6//206 7//5
f 2//7 10//207 11//8
f 12//10 13//208 14//11
f 16//13 17//209 18//14
f 20//16 17//16 16//16
f 22//17 23//210 24//18
f 4//20 3//211 22//21
f 25//23 24//23 23//23
f 19//24 18//212 27//25
f 32//213 28//29 31//28
f 29//214 30//27 28//29
f 1//30 32//215 10//31
f 33//33 34//216 7//34
f 7//36 34//36 35//36
f 22//37 19//217 26//38
f 36//23 25//23 26//23
f 9//16 16//16 3//16
f 3//40 16//13 19//15
f 37//42 38//218 39//43
f 9//45 11//219 40//46
f 30//220 29//51 43//50
f 41//221 42//49 29//51
f 11//52 10//222 13//53
f 12//55 15//223 39//56
f 45//58 12//224 44//59
f 48//61 49//225 50//62
f 38//64 51//226 52//65
f 44//67 48//227 47//68
f 44//70 39//228 52//71
f 48//73 52//73 53//73
f 52//74 51//229 54//75
f 56//77 57//77 58//77
f 53//78 54//230 58//79
f 49//81 56//231 55//82
f 49//84 53//232 57//85
f 1//87 4//233 59//88
f 61//90 62//234 63//91
f 66//93 28//235 60//94
f 67//96 68//236 41//97
f 69//99 70//127 71//100
f 69//102 72//102 73//102
f 24//103 74//237 75//104
f 4//106 21//238 75//107
f 25//109 76//109 74//109
f 70//110 76//239 77//111
f 78//113 79//240 80//114
f 28//116 32//241 1//117
f 63//119 34//242 33//120
f 35//122 34//122 63//122
f 75//123 74//243 76//124
f 36//109 77//109 76//109
f 59//102 69//102 65//102
f 59//126 75//244 70//127
f 82//128 83//245 84//129
f 85//131 66//246 65//132
f 13//247 10//137 86//136
f 32//248 31//135 10//137
f 66//138 67//249 29//139
f 67//141 87//250 82//142
f 88//144 89//251 87//145
f 91//147 92//252 93//148
f 94//150 95//253 83//151
f 90//153 93//254 87//154
f 87//156 93//255 94//157
f 93//159 92//159 96//159
f 94//160 96//256 97//161
f 99//163 100//163 101//163
f 96//164 100//257 99//165
f 98//167 101//258 92//168
f 92//170 101//259 100//171
f 31//173 102//173 103//173
f 14//260 13//176 42//175
f 86//261 43//174 13//176
f 43//177 79//262 78//178
f 31//180 30//180 78//180
f 43//181 86//263 103//182
f 102//184 104//184 105//184
f 103//185 105//264 80//186
f 102//188 78//188 81//188
f 64//193 33//265 42//194
f 68//196 61//266 64//197
f 42//199 33//267 6//200
f 15//202 14//268 6//203
usemtl 1A1A1A
f 130//269 131//269 132//269
f 132//269 131//269 133//269
f 134//269 131//269 135//269
f 136//269 131//269 137//269
f 138//269 131//269 130//269
f 133//269 131//269 134//269
f 135//269 131//269 136//269
f 137//269 131//269 138//269
f 130//270 139//270 140//270
f 132//271 141//271 139//271
f 135//272 143//272 134//272
f 137//273 145//273 136//273
f 138//274 140//274 146//274
f 134//275 141//275 133//275
f 136//276 142//276 135//276
f 137//277 146//277 144//277
f 147//278 148//278 149//278
f 148//278 150//278 149//278
f 151//278 152//278 149//278
f 153//278 154//278 149//278
f 155//278 147//278 149//278
f 150//278 151//278 149//278
f 152//278 153//278 149//278
f 154//278 155//278 149//278
f 147//279 157//279 148//279
f 148//280 158//280 150//280
f 159//281 152//282 151//282
f 161//283 154//283 153//283
f 155//284 156//284 147//284
f 158//285 151//285 150//285
f 160//286 153//286 152//286
f 154//287 163//287 155//287
f 130//270 132//270 139//270
f 132//271 133//271 141//271
f 135//272 142//272 143//272
f 137//273 144//273 145//273
f 138//274 130//288 140//274
f 134//275 143//275 141//275
f 136//276 145//276 142//276
f 137//277 138//277 146//277
f 147//279 156//279 157//279
f 148//280 157//280 158//280
f 159//281 160//281 152//282
f 161//283 162//283 154//283
f 155//284 163//284 156//284
f 158//285 159//285 151//285
f 160//286 161//286 153//286
f 154//287 162//287 163//287
usemtl FFFFFF
f 107//289 109//290 110//291
f 20//292 112//293 111//294
f 45//295 114//295 113//295
f 18//296 36//297 27//298
f 116//299 18//299 17//299
f 111//300 17//300 20//300
f 117//301 110//302 109//303
f 119//304 109//305 108//306
f 37//307 120//308 121//309
f 114//310 121//311 122//312
f 40//295 113//295 112//295
f 46//313 51//314 38//315
f 45//316 38//317 37//318
f 50//319 58//320 54//321
f 47//322 54//322 51//322
f 119//323 118//324 117//325
f 120//326 123//326 118//326
f 107//327 124//328 125//329
f 112//330 73//331 111//294
f 114//332 88//332 113//332
f 71//333 36//334 115//335
f 71//299 116//299 72//299
f 72//300 111//300 73//300
f 110//336 126//337 124//338
f 124//339 127//340 125//341
f 84//342 129//343 68//344
f 114//345 128//346 84//347
f 113//332 85//332 112//332
f 95//348 89//349 83//350
f 83//351 88//352 84//353
f 99//354 91//355 97//356
f 97//357 90//357 95//357
f 118//358 127//359 126//360
f 129//361 118//362 123//363
f 125//364 129//365 128//366
f 122//367 125//368 128//369
f 120//370 108//371 121//372
f 122//373 108//374 107//375
f 129//361 123//363 68//376
f 120//377 15//377 123//377
f 12//48 45//48 40//48
f 67//134 85//134 88//134
f 107//289 108//378 109//290
f 20//292 40//379 112//293
f 45//295 37//295 114//295
f 18//296 115//335 36//297
f 116//299 115//299 18//299
f 111//300 116//300 17//300
f 117//301 118//380 110//302
f 119//304 117//381 109//305
f 37//307 15//382 120//308
f 114//310 37//383 121//311
f 40//295 45//295 113//295
f 46//313 47//384 51//314
f 45//316 46//385 38//317
f 50//319 55//386 58//320
f 47//322 50//322 54//322
f 119//323 120//387 118//324
f 107//327 110//388 124//328
f 112//330 85//389 73//331
f 114//332 84//332 88//332
f 71//333 77//390 36//334
f 71//299 115//299 116//299
f 72//300 116//300 111//300
f 110//336 118//391 126//337
f 124//339 126//392 127//340
f 84//342 128//393 129//343
f 114//345 122//394 128//346
f 113//332 88//332 85//332
f 95//348 90//395 89//349
f 83//351 89//396 88//352
f 99//354 98//397 91//355
f 97//357 91//357 90//357
f 118//358 129//398 127//359
f 125//364 127//399 129//365
f 122//367 107//400 125//368
f 120//370 119//401 108//371
f 122//373 121//402 108//374
